<?xml version="1.0" encoding="UTF-8"?><svg xmlns="http://www.w3.org/2000/svg" width="170" height="170" viewBox="0 0 170 170"><defs><style>.cls-1{fill:#00a8a6;}.cls-2{fill:#00808a;}.cls-3{fill:#a2d6d3;}.cls-4{fill:#fff;opacity:0;}</style></defs><g id="_レイヤー_3"><rect class="cls-4" x="0" width="170" height="170"/></g><g id="_レイヤー_4"><g><circle class="cls-1" cx="99.08" cy="151.17" r="14.13"/><circle class="cls-3" cx="70.81" cy="18.83" r="14.13"/><polygon class="cls-1" points="126.18 69.75 130.66 44.34 104.37 44.34 99.89 69.75 126.18 69.75"/><polygon class="cls-1" points="126.18 69.75 130.66 44.34 104.37 44.34 99.89 69.75 126.18 69.75"/><polygon class="cls-1" points="90.03 125.66 116.33 125.66 120.81 100.25 94.51 100.25 90.03 125.66"/><rect class="cls-2" x="29.1" y="44.34" width="119.65" height="25.41"/><polygon class="cls-3" points="58.69 165.3 32.39 165.3 53.72 44.34 80.02 44.34 58.69 165.3"/><rect class="cls-2" x="21.26" y="100.25" width="119.65" height="25.41"/><polygon class="cls-1" points="116.33 125.66 90.03 125.66 111.36 4.7 137.66 4.7 116.33 125.66"/><polygon class="cls-2" points="127.3 69.75 131.78 44.34 103.25 44.34 98.77 69.75 127.3 69.75"/></g></g></svg>