<svg width="43" height="50" viewBox="0 0 43 50" fill="none" xmlns="http://www.w3.org/2000/svg">
<path opacity="0.8" d="M42.32 12.0801H3.48999V20.1701H42.32V12.0801Z" fill="#231815"/>
<path opacity="0.8" d="M39.62 29.3701H0.790039V37.4601H39.62V29.3701Z" fill="#231815"/>
<path opacity="0.8" d="M14.24 49.9201H5.46997L11.59 12.0801H20.36L14.24 49.9201Z" fill="#231815"/>
<path opacity="0.8" d="M31.6701 37.46H22.9001L28.8201 0H37.5901L31.6701 37.46Z" fill="#231815"/>
<path opacity="0.8" d="M17.0901 8.96C19.5643 8.96 21.5701 6.95424 21.5701 4.48C21.5701 2.00576 19.5643 0 17.0901 0C14.6159 0 12.6101 2.00576 12.6101 4.48C12.6101 6.95424 14.6159 8.96 17.0901 8.96Z" fill="#231815"/>
<path opacity="0.8" d="M26.0501 49.92C28.5243 49.92 30.5301 47.9142 30.5301 45.44C30.5301 42.9657 28.5243 40.96 26.0501 40.96C23.5758 40.96 21.5701 42.9657 21.5701 45.44C21.5701 47.9142 23.5758 49.92 26.0501 49.92Z" fill="#231815"/>
</svg>
