<?xml version="1.0" encoding="UTF-8"?><svg xmlns="http://www.w3.org/2000/svg" width="170" height="170" viewBox="0 0 170 170"><defs><style>.cls-1{fill:#00a8a6;}.cls-2{fill:#00808a;}.cls-3{fill:#a2d6d3;}.cls-4{fill:#fff;opacity:0;}</style></defs><g id="_レイヤー_3"><rect class="cls-4" x="0" width="170" height="170"/></g><g id="_レイヤー_4"><g><g><path class="cls-1" d="M16.62,145.32h-4.56l2.19-3.73h6.36v26.39h-3.98v-22.66Z"/><path class="cls-1" d="M41.25,140.68l2.92,2.19-6.31,8.58c.34-.04,.63-.08,.87-.1,.24-.02,.43-.03,.56-.03,2.14,0,3.99,.82,5.55,2.46,1.55,1.62,2.32,3.57,2.32,5.84,0,2.42-.87,4.49-2.6,6.22-1.72,1.72-3.79,2.58-6.2,2.58s-4.49-.85-6.29-2.55c-1.77-1.7-2.65-3.71-2.65-6.03,0-2.08,.86-4.29,2.58-6.63l9.23-12.53Zm2.05,19.19c0-1.4-.48-2.59-1.45-3.55s-2.16-1.47-3.54-1.47-2.57,.48-3.54,1.45c-.97,.97-1.45,2.14-1.45,3.52s.48,2.55,1.45,3.52c.97,.97,2.15,1.45,3.55,1.45s2.53-.48,3.5-1.45,1.47-2.14,1.47-3.47Z"/><path class="cls-1" d="M55.21,151.34h3.84v1.54c.74-.77,1.37-1.3,1.9-1.57,.56-.28,1.26-.43,2.1-.43,1.88,0,3.37,.82,4.46,2.46,1.21-1.64,2.84-2.46,4.91-2.46,3.75,0,5.62,2.27,5.62,6.82v10.29h-3.86v-9.25c0-1.59-.19-2.72-.58-3.38-.4-.67-1.05-1.01-1.97-1.01-1.06,0-1.83,.4-2.32,1.2-.48,.8-.73,2.08-.73,3.85v8.6h-3.86v-9.19c0-2.96-.85-4.44-2.56-4.44-1.08,0-1.87,.41-2.37,1.21-.5,.81-.74,2.08-.74,3.83v8.6h-3.84v-16.65Z"/><path class="cls-1" d="M101.73,160.57h-11.93c.1,1.37,.55,2.46,1.33,3.26,.79,.8,1.79,1.2,3.02,1.2,.96,0,1.75-.23,2.38-.68,.62-.46,1.32-1.3,2.1-2.53l3.25,1.81c-.5,.85-1.03,1.59-1.59,2.2-.56,.61-1.16,1.11-1.79,1.5-.64,.39-1.33,.68-2.07,.86-.74,.18-1.54,.27-2.41,.27-2.48,0-4.48-.8-5.98-2.39-1.5-1.61-2.26-3.74-2.26-6.39s.73-4.76,2.19-6.39c1.47-1.61,3.42-2.41,5.84-2.41s4.39,.78,5.81,2.34c1.41,1.55,2.12,3.7,2.12,6.44l-.02,.91Zm-3.95-3.14c-.54-2.05-1.83-3.08-3.88-3.08-.47,0-.91,.07-1.32,.21s-.78,.35-1.12,.62c-.34,.27-.62,.59-.86,.97s-.42,.8-.55,1.28h7.72Z"/><path class="cls-1" d="M109.61,151.34h3.84v1.54c.74-.77,1.37-1.3,1.9-1.57,.56-.28,1.26-.43,2.1-.43,1.88,0,3.37,.82,4.46,2.46,1.21-1.64,2.84-2.46,4.91-2.46,3.75,0,5.62,2.27,5.62,6.82v10.29h-3.86v-9.25c0-1.59-.19-2.72-.58-3.38-.4-.67-1.05-1.01-1.97-1.01-1.06,0-1.83,.4-2.32,1.2-.48,.8-.73,2.08-.73,3.85v8.6h-3.86v-9.19c0-2.96-.85-4.44-2.56-4.44-1.08,0-1.87,.41-2.37,1.21-.5,.81-.74,2.08-.74,3.83v8.6h-3.84v-16.65Z"/><path class="cls-1" d="M140.19,159.54c0-2.4,.86-4.45,2.58-6.13,1.72-1.69,3.82-2.53,6.29-2.53s4.59,.85,6.32,2.55c1.71,1.7,2.56,3.78,2.56,6.25s-.86,4.59-2.58,6.27c-1.73,1.67-3.86,2.51-6.38,2.51s-4.59-.85-6.27-2.56c-1.69-1.69-2.53-3.8-2.53-6.36Zm3.93,.07c0,1.66,.44,2.98,1.33,3.95,.91,.98,2.11,1.47,3.61,1.47s2.71-.48,3.61-1.45c.9-.97,1.35-2.26,1.35-3.88s-.45-2.91-1.35-3.88c-.91-.98-2.11-1.47-3.61-1.47s-2.66,.49-3.57,1.47c-.91,.98-1.37,2.25-1.37,3.79Z"/></g><circle class="cls-1" cx="95.75" cy="112.94" r="10.75"/><circle class="cls-3" cx="74.25" cy="12.29" r="10.75"/><polygon class="cls-1" points="116.36 51.02 119.77 31.69 99.77 31.69 96.36 51.02 116.36 51.02"/><polygon class="cls-1" points="116.36 51.02 119.77 31.69 99.77 31.69 96.36 51.02 116.36 51.02"/><polygon class="cls-1" points="88.87 93.54 108.87 93.54 112.27 74.21 92.27 74.21 88.87 93.54"/><rect class="cls-2" x="42.52" y="31.69" width="91" height="19.33"/><polygon class="cls-3" points="65.03 123.69 45.03 123.69 61.25 31.69 81.25 31.69 65.03 123.69"/><rect class="cls-2" x="36.56" y="74.21" width="91" height="19.33"/><polygon class="cls-1" points="108.87 93.54 88.87 93.54 105.09 1.54 125.09 1.54 108.87 93.54"/><polygon class="cls-2" points="117.21 51.02 120.62 31.69 98.92 31.69 95.51 51.02 117.21 51.02"/></g></g></svg>