<svg width="146" height="170" viewBox="0 0 146 170" fill="none" xmlns="http://www.w3.org/2000/svg">
<g clip-path="url(#clip0_40_25610)">
<path opacity="0.8" d="M121.017 28.6096H29.4524V47.7696H121.017V28.6096Z" fill="#00A8A6"/>
<path opacity="0.8" d="M114.65 69.5583H23.0856V88.7183H114.65V69.5583Z" fill="#00A8A6"/>
<path opacity="0.8" d="M54.8018 118.228H34.1214L48.5528 28.6096H69.2332L54.8018 118.228Z" fill="#00A8A6"/>
<path opacity="0.8" d="M95.9031 88.7183H75.2227L89.1825 0H109.863L95.9031 88.7183Z" fill="#00A8A6"/>
<path opacity="0.8" d="M61.5223 21.2204C67.3567 21.2204 72.0865 16.47 72.0865 10.6102C72.0865 4.75035 67.3567 0 61.5223 0C55.6878 0 50.9581 4.75035 50.9581 10.6102C50.9581 16.47 55.6878 21.2204 61.5223 21.2204Z" fill="#00A8A6"/>
<path opacity="0.8" d="M82.6507 118.228C88.4851 118.228 93.2149 113.478 93.2149 107.618C93.2149 101.758 88.4851 97.0076 82.6507 97.0076C76.8162 97.0076 72.0865 101.758 72.0865 107.618C72.0865 113.478 76.8162 118.228 82.6507 118.228Z" fill="#00A8A6"/>
<g opacity="0.8">
<path d="M4.62184 146.53H0L2.21659 142.74H8.63057V169.526H4.62184V146.53Z" fill="#00A8A6"/>
<path d="M30.7494 141.793L33.697 144.019L27.3302 152.735C27.6839 152.687 27.9669 152.664 28.2027 152.64C28.4385 152.616 28.6271 152.616 28.7686 152.616C30.938 152.616 32.8009 153.445 34.3808 155.103C35.9372 156.737 36.7389 158.727 36.7389 161.024C36.7389 163.487 35.8664 165.571 34.1214 167.347C32.3765 169.124 30.3014 169.976 27.849 169.976C25.3965 169.976 23.3214 169.124 21.4821 167.395C19.69 165.666 18.8175 163.629 18.8175 161.261C18.8175 159.153 19.69 156.903 21.435 154.535L30.773 141.817L30.7494 141.793ZM32.8245 161.284C32.8245 159.863 32.3293 158.656 31.3625 157.685C30.3957 156.714 29.1695 156.193 27.7782 156.193C26.3869 156.193 25.1843 156.69 24.1939 157.661C23.2035 158.632 22.7319 159.84 22.7319 161.237C22.7319 162.634 23.2271 163.819 24.1939 164.813C25.1607 165.808 26.3634 166.282 27.7782 166.282C29.1931 166.282 30.3485 165.784 31.3153 164.813C32.2821 163.842 32.8009 162.634 32.8009 161.284H32.8245Z" fill="#00A8A6"/>
<path d="M44.1904 152.616H48.0812V154.179C48.8358 153.398 49.4725 152.853 49.9913 152.593C50.5572 152.308 51.2646 152.166 52.1135 152.166C54.0236 152.166 55.5092 152.995 56.6175 154.653C57.8437 152.995 59.4943 152.166 61.5694 152.166C65.3659 152.166 67.2524 154.464 67.2524 159.082V169.526H63.338V160.148C63.338 158.537 63.1494 157.377 62.7485 156.713C62.3476 156.027 61.6873 155.695 60.7677 155.695C59.7066 155.695 58.9048 156.098 58.4332 156.903C57.938 157.708 57.7022 159.011 57.7022 160.811V169.526H53.7878V160.195C53.7878 157.187 52.9153 155.695 51.1939 155.695C50.1092 155.695 49.3074 156.098 48.8122 156.927C48.317 157.756 48.0576 159.034 48.0576 160.811V169.526H44.1668V152.64L44.1904 152.616Z" fill="#00A8A6"/>
<path d="M90.5267 161.995H78.4769C78.5712 163.392 79.0193 164.482 79.821 165.311C80.6228 166.116 81.6367 166.518 82.8865 166.518C83.8533 166.518 84.6551 166.282 85.2918 165.832C85.9049 165.382 86.6123 164.505 87.414 163.274L90.6918 165.121C90.1966 165.997 89.6542 166.732 89.0883 167.347C88.5223 167.963 87.9092 168.484 87.2726 168.863C86.6359 169.266 85.9284 169.55 85.1739 169.739C84.4193 169.929 83.6175 170.024 82.745 170.024C80.2455 170.024 78.2175 169.218 76.7084 167.584C75.1992 165.95 74.421 163.795 74.421 161.095C74.421 158.395 75.152 156.263 76.6376 154.606C78.1232 152.971 80.0804 152.166 82.5328 152.166C84.9852 152.166 86.966 152.948 88.4044 154.535C89.8429 156.098 90.5503 158.277 90.5503 161.071V161.995H90.5267ZM86.518 158.798C85.9756 156.713 84.6787 155.671 82.6036 155.671C82.1319 155.671 81.6839 155.742 81.283 155.885C80.8586 156.027 80.4813 156.24 80.1512 156.5C79.821 156.761 79.5145 157.092 79.2787 157.471C79.0429 157.85 78.8542 158.277 78.7363 158.774H86.5416L86.518 158.798Z" fill="#00A8A6"/>
<path d="M97.8131 152.616H101.704V154.179C102.459 153.398 103.095 152.853 103.614 152.593C104.18 152.308 104.887 152.166 105.736 152.166C107.646 152.166 109.132 152.995 110.24 154.653C111.466 152.995 113.117 152.166 115.192 152.166C118.989 152.166 120.875 154.464 120.875 159.082V169.526H116.961V160.148C116.961 158.537 116.772 157.377 116.371 156.713C115.97 156.027 115.31 155.695 114.39 155.695C113.329 155.695 112.528 156.098 112.056 156.903C111.561 157.708 111.325 159.011 111.325 160.811V169.526H107.411V160.195C107.411 157.187 106.538 155.695 104.817 155.695C103.732 155.695 102.93 156.098 102.435 156.927C101.94 157.756 101.68 159.034 101.68 160.811V169.526H97.7896V152.64L97.8131 152.616Z" fill="#00A8A6"/>
<path d="M128.044 160.953C128.044 158.513 128.916 156.429 130.661 154.724C132.406 153.019 134.528 152.166 137.028 152.166C139.528 152.166 141.673 153.019 143.418 154.748C145.14 156.477 146.012 158.584 146.012 161.095C146.012 163.605 145.14 165.761 143.395 167.466C141.65 169.171 139.504 170.024 136.957 170.024C134.411 170.024 132.335 169.147 130.614 167.418C128.916 165.713 128.067 163.558 128.067 160.977L128.044 160.953ZM132.005 161.024C132.005 162.705 132.453 164.055 133.349 165.026C134.269 166.021 135.495 166.518 136.981 166.518C138.466 166.518 139.716 166.021 140.636 165.05C141.555 164.079 142.004 162.753 142.004 161.119C142.004 159.484 141.555 158.158 140.636 157.187C139.716 156.192 138.49 155.695 136.981 155.695C135.472 155.695 134.293 156.192 133.373 157.187C132.453 158.182 131.982 159.461 131.982 161.048L132.005 161.024Z" fill="#00A8A6"/>
</g>
</g>
<defs>
<clipPath id="clip0_40_25610">
<rect width="145.989" height="170" fill="white"/>
</clipPath>
</defs>
</svg>
