<svg width="147" height="171" viewBox="0 0 147 171" fill="none" xmlns="http://www.w3.org/2000/svg">
<path opacity="0.8" d="M122.49 28.6096H30.5273V47.7696H122.49V28.6096Z" fill="#F2F2F2"/>
<path opacity="0.8" d="M116.096 69.5583H24.1328V88.7183H116.096V69.5583Z" fill="#F2F2F2"/>
<path opacity="0.8" d="M55.9872 118.228H35.2168L49.7348 28.6096H70.5052L55.9872 118.228Z" fill="#F2F2F2"/>
<path opacity="0.8" d="M97.2665 88.7183H76.4961L90.5167 0H111.287L97.2665 88.7183Z" fill="#F2F2F2"/>
<path opacity="0.8" d="M62.7606 21.2204C68.6204 21.2204 73.3708 16.47 73.3708 10.6102C73.3708 4.75035 68.6204 0 62.7606 0C56.9007 0 52.1504 4.75035 52.1504 10.6102C52.1504 16.47 56.9007 21.2204 62.7606 21.2204Z" fill="#F2F2F2"/>
<path opacity="0.8" d="M83.9579 118.228C89.8177 118.228 94.5681 113.478 94.5681 107.618C94.5681 101.758 89.8177 97.0076 83.9579 97.0076C78.098 97.0076 73.3477 101.758 73.3477 107.618C73.3477 113.478 78.098 118.228 83.9579 118.228Z" fill="#F2F2F2"/>
<path d="M4.64196 146.53H0L2.22625 142.74H8.66815V169.526H4.64196V146.53Z" fill="#F2F2F2"/>
<path d="M30.8823 141.793L33.8427 144.019L27.4482 152.735C27.8034 152.687 28.0876 152.664 28.3245 152.64C28.5613 152.616 28.7508 152.616 28.8929 152.616C31.0717 152.616 32.9427 153.445 34.5295 155.103C36.0926 156.737 36.8979 158.727 36.8979 161.024C36.8979 163.487 36.0216 165.571 34.269 167.347C32.5164 169.124 30.4323 169.976 27.9692 169.976C25.5061 169.976 23.422 169.124 21.5747 167.395C19.7747 165.666 18.8984 163.629 18.8984 161.261C18.8984 159.153 19.7747 156.903 21.5273 154.535L30.906 141.817L30.8823 141.793ZM32.9664 161.284C32.9664 159.863 32.4691 158.656 31.498 157.685C30.527 156.714 29.2955 156.193 27.8982 156.193C26.5008 156.193 25.293 156.69 24.2983 157.661C23.3036 158.632 22.8299 159.84 22.8299 161.237C22.8299 162.634 23.3272 163.819 24.2983 164.813C25.2693 165.808 26.4771 166.282 27.8982 166.282C29.3192 166.282 30.4797 165.784 31.4507 164.813C32.4217 163.842 32.9427 162.634 32.9427 161.284H32.9664Z" fill="#F2F2F2"/>
<path d="M44.3831 152.616H48.2908V154.179C49.0487 153.398 49.6882 152.853 50.2092 152.593C50.7776 152.308 51.4881 152.166 52.3407 152.166C54.2591 152.166 55.7511 152.995 56.8643 154.653C58.0958 152.995 59.7536 152.166 61.8378 152.166C65.6508 152.166 67.5455 154.464 67.5455 159.082V169.526H63.614V160.148C63.614 158.537 63.4246 157.377 63.022 156.713C62.6193 156.027 61.9562 155.695 61.0325 155.695C59.9668 155.695 59.1616 156.098 58.6879 156.903C58.1905 157.708 57.9537 159.011 57.9537 160.811V169.526H54.0222V160.195C54.0222 157.187 53.1459 155.695 51.417 155.695C50.3276 155.695 49.5224 156.098 49.025 156.927C48.5277 157.756 48.2671 159.034 48.2671 160.811V169.526H44.3594V152.64L44.3831 152.616Z" fill="#F2F2F2"/>
<path d="M90.92 161.995H78.8177C78.9124 163.392 79.3624 164.482 80.1677 165.311C80.9729 166.116 81.9913 166.518 83.2465 166.518C84.2175 166.518 85.0228 166.282 85.6622 165.832C86.278 165.382 86.9885 164.505 87.7937 163.274L91.0857 165.121C90.5884 165.997 90.0437 166.732 89.4753 167.347C88.9069 167.963 88.2911 168.484 87.6516 168.863C87.0122 169.266 86.3017 169.55 85.5438 169.739C84.7859 169.929 83.9807 170.024 83.1044 170.024C80.594 170.024 78.5572 169.218 77.0414 167.584C75.5257 165.95 74.7441 163.795 74.7441 161.095C74.7441 158.395 75.4783 156.263 76.9704 154.606C78.4624 152.971 80.4282 152.166 82.8913 152.166C85.3543 152.166 87.3438 152.948 88.7884 154.535C90.2331 156.098 90.9436 158.277 90.9436 161.071V161.995H90.92ZM86.8938 158.798C86.349 156.713 85.0465 155.671 82.9623 155.671C82.4886 155.671 82.0387 155.742 81.636 155.885C81.2097 156.027 80.8308 156.24 80.4992 156.5C80.1677 156.761 79.8598 157.092 79.6229 157.471C79.3861 157.85 79.1966 158.277 79.0782 158.774H86.9175L86.8938 158.798Z" fill="#F2F2F2"/>
<path d="M98.2385 152.616H102.146V154.179C102.904 153.398 103.544 152.853 104.065 152.593C104.633 152.308 105.344 152.166 106.196 152.166C108.115 152.166 109.607 152.995 110.72 154.653C111.951 152.995 113.609 152.166 115.693 152.166C119.506 152.166 121.401 154.464 121.401 159.082V169.526H117.47V160.148C117.47 158.537 117.28 157.377 116.877 156.713C116.475 156.027 115.812 155.695 114.888 155.695C113.822 155.695 113.017 156.098 112.543 156.903C112.046 157.708 111.809 159.011 111.809 160.811V169.526H107.878V160.195C107.878 157.187 107.001 155.695 105.273 155.695C104.183 155.695 103.378 156.098 102.88 156.927C102.383 157.756 102.123 159.034 102.123 160.811V169.526H98.2148V152.64L98.2385 152.616Z" fill="#F2F2F2"/>
<path d="M128.602 160.953C128.602 158.513 129.478 156.429 131.23 154.724C132.983 153.019 135.115 152.166 137.625 152.166C140.135 152.166 142.291 153.019 144.043 154.748C145.772 156.477 146.648 158.584 146.648 161.095C146.648 163.605 145.772 165.761 144.02 167.466C142.267 169.171 140.112 170.024 137.554 170.024C134.996 170.024 132.912 169.147 131.183 167.418C129.478 165.713 128.625 163.558 128.625 160.977L128.602 160.953ZM132.58 161.024C132.58 162.705 133.03 164.055 133.93 165.026C134.854 166.021 136.086 166.518 137.578 166.518C139.07 166.518 140.325 166.021 141.249 165.05C142.172 164.079 142.622 162.753 142.622 161.119C142.622 159.484 142.172 158.158 141.249 157.187C140.325 156.192 139.093 155.695 137.578 155.695C136.062 155.695 134.878 156.192 133.954 157.187C133.03 158.182 132.557 159.461 132.557 161.048L132.58 161.024Z" fill="#F2F2F2"/>
</svg>
