<svg width="296" height="844" viewBox="0 0 296 844" fill="none" xmlns="http://www.w3.org/2000/svg">
<mask id="mask0_1152_58607" style="mask-type:alpha" maskUnits="userSpaceOnUse" x="0" y="0" width="296" height="844">
<path fill-rule="evenodd" clip-rule="evenodd" d="M296 0H0V844H296V0ZM20 60C25.5228 60 30 55.5228 30 50C30 44.4772 25.5228 40 20 40C14.4772 40 10 44.4772 10 50C10 55.5228 14.4772 60 20 60ZM20 93C25.5228 93 30 88.5229 30 83C30 77.4771 25.5228 73 20 73C14.4772 73 10 77.4771 10 83C10 88.5229 14.4772 93 20 93ZM30 149C30 154.523 25.5228 159 20 159C14.4772 159 10 154.523 10 149C10 143.477 14.4772 139 20 139C25.5228 139 30 143.477 30 149ZM20 357C25.5228 357 30 352.523 30 347C30 341.477 25.5228 337 20 337C14.4772 337 10 341.477 10 347C10 352.523 14.4772 357 20 357ZM30 182C30 187.523 25.5228 192 20 192C14.4772 192 10 187.523 10 182C10 176.477 14.4772 172 20 172C25.5228 172 30 176.477 30 182ZM20 621C25.5228 621 30 616.523 30 611C30 605.477 25.5228 601 20 601C14.4772 601 10 605.477 10 611C10 616.523 14.4772 621 20 621ZM30 644C30 649.523 25.5228 654 20 654C14.4772 654 10 649.523 10 644C10 638.477 14.4772 634 20 634C25.5228 634 30 638.477 30 644ZM20 687C25.5228 687 30 682.523 30 677C30 671.477 25.5228 667 20 667C14.4772 667 10 671.477 10 677C10 682.523 14.4772 687 20 687ZM30 710C30 715.523 25.5228 720 20 720C14.4772 720 10 715.523 10 710C10 704.477 14.4772 700 20 700C25.5228 700 30 704.477 30 710ZM20 390C25.5228 390 30 385.523 30 380C30 374.477 25.5228 370 20 370C14.4772 370 10 374.477 10 380C10 385.523 14.4772 390 20 390ZM30 413C30 418.523 25.5228 423 20 423C14.4772 423 10 418.523 10 413C10 407.477 14.4772 403 20 403C25.5228 403 30 407.477 30 413ZM20 456C25.5228 456 30 451.523 30 446C30 440.477 25.5228 436 20 436C14.4772 436 10 440.477 10 446C10 451.523 14.4772 456 20 456ZM30 479C30 484.523 25.5228 489 20 489C14.4772 489 10 484.523 10 479C10 473.477 14.4772 469 20 469C25.5228 469 30 473.477 30 479ZM20 522C25.5228 522 30 517.523 30 512C30 506.477 25.5228 502 20 502C14.4772 502 10 506.477 10 512C10 517.523 14.4772 522 20 522ZM30 545C30 550.523 25.5228 555 20 555C14.4772 555 10 550.523 10 545C10 539.477 14.4772 535 20 535C25.5228 535 30 539.477 30 545ZM20 588C25.5228 588 30 583.523 30 578C30 572.477 25.5228 568 20 568C14.4772 568 10 572.477 10 578C10 583.523 14.4772 588 20 588ZM30 314C30 319.523 25.5228 324 20 324C14.4772 324 10 319.523 10 314C10 308.477 14.4772 304 20 304C25.5228 304 30 308.477 30 314ZM20 291C25.5228 291 30 286.523 30 281C30 275.477 25.5228 271 20 271C14.4772 271 10 275.477 10 281C10 286.523 14.4772 291 20 291ZM30 248C30 253.523 25.5228 258 20 258C14.4772 258 10 253.523 10 248C10 242.477 14.4772 238 20 238C25.5228 238 30 242.477 30 248ZM20 225C25.5228 225 30 220.523 30 215C30 209.477 25.5228 205 20 205C14.4772 205 10 209.477 10 215C10 220.523 14.4772 225 20 225ZM30 116C30 121.523 25.5228 126 20 126C14.4772 126 10 121.523 10 116C10 110.477 14.4772 106 20 106C25.5228 106 30 110.477 30 116Z" fill="#D9D9D9"/>
</mask>
<g mask="url(#mask0_1152_58607)">
<rect width="390" height="844" fill="#F2F2F2"/>
<line x1="20.1" y1="4.37114e-09" x2="20.1" y2="844" stroke="#9B9B9B" stroke-width="0.2"/>
<line x1="40.1" y1="4.37114e-09" x2="40.1" y2="844" stroke="#9B9B9B" stroke-width="0.2"/>
<line x1="60.1" y1="4.37114e-09" x2="60.1" y2="844" stroke="#9B9B9B" stroke-width="0.2"/>
<line x1="80.1" y1="4.37114e-09" x2="80.1" y2="844" stroke="#9B9B9B" stroke-width="0.2"/>
<line x1="100.1" y1="4.37114e-09" x2="100.1" y2="844" stroke="#9B9B9B" stroke-width="0.2"/>
<line x1="120.1" y1="4.37114e-09" x2="120.1" y2="844" stroke="#9B9B9B" stroke-width="0.2"/>
<line x1="140.1" y1="4.37114e-09" x2="140.1" y2="844" stroke="#9B9B9B" stroke-width="0.2"/>
<line x1="160.1" y1="4.37114e-09" x2="160.1" y2="844" stroke="#9B9B9B" stroke-width="0.2"/>
<line x1="180.1" y1="4.37114e-09" x2="180.1" y2="844" stroke="#9B9B9B" stroke-width="0.2"/>
<line x1="200.1" y1="4.37114e-09" x2="200.1" y2="844" stroke="#9B9B9B" stroke-width="0.2"/>
<line x1="220.1" y1="4.37114e-09" x2="220.1" y2="844" stroke="#9B9B9B" stroke-width="0.2"/>
<line x1="240.1" y1="4.37114e-09" x2="240.1" y2="844" stroke="#9B9B9B" stroke-width="0.2"/>
<line x1="260.1" y1="4.37114e-09" x2="260.1" y2="844" stroke="#9B9B9B" stroke-width="0.2"/>
<line x1="280.1" y1="4.37114e-09" x2="280.1" y2="844" stroke="#9B9B9B" stroke-width="0.2"/>
<line y1="19.9" x2="390" y2="19.9" stroke="#9B9B9B" stroke-width="0.2"/>
<line y1="39.9" x2="390" y2="39.9" stroke="#9B9B9B" stroke-width="0.2"/>
<line y1="59.9" x2="390" y2="59.9" stroke="#9B9B9B" stroke-width="0.2"/>
<line y1="79.9" x2="390" y2="79.9" stroke="#9B9B9B" stroke-width="0.2"/>
<line y1="99.9" x2="390" y2="99.9" stroke="#9B9B9B" stroke-width="0.2"/>
<line y1="119.9" x2="390" y2="119.9" stroke="#9B9B9B" stroke-width="0.2"/>
<line y1="139.9" x2="390" y2="139.9" stroke="#9B9B9B" stroke-width="0.2"/>
<line y1="159.9" x2="390" y2="159.9" stroke="#9B9B9B" stroke-width="0.2"/>
<line y1="179.9" x2="390" y2="179.9" stroke="#9B9B9B" stroke-width="0.2"/>
<line y1="199.9" x2="390" y2="199.9" stroke="#9B9B9B" stroke-width="0.2"/>
<line y1="219.9" x2="390" y2="219.9" stroke="#9B9B9B" stroke-width="0.2"/>
<line y1="239.9" x2="390" y2="239.9" stroke="#9B9B9B" stroke-width="0.2"/>
<line y1="259.9" x2="390" y2="259.9" stroke="#9B9B9B" stroke-width="0.2"/>
<line y1="279.9" x2="390" y2="279.9" stroke="#9B9B9B" stroke-width="0.2"/>
<line y1="299.9" x2="390" y2="299.9" stroke="#9B9B9B" stroke-width="0.2"/>
<line y1="319.9" x2="390" y2="319.9" stroke="#9B9B9B" stroke-width="0.2"/>
<line y1="339.9" x2="390" y2="339.9" stroke="#9B9B9B" stroke-width="0.2"/>
<line y1="359.9" x2="390" y2="359.9" stroke="#9B9B9B" stroke-width="0.2"/>
<line y1="379.9" x2="390" y2="379.9" stroke="#9B9B9B" stroke-width="0.2"/>
<line y1="399.9" x2="390" y2="399.9" stroke="#9B9B9B" stroke-width="0.2"/>
<line y1="419.9" x2="390" y2="419.9" stroke="#9B9B9B" stroke-width="0.2"/>
<line y1="439.9" x2="390" y2="439.9" stroke="#9B9B9B" stroke-width="0.2"/>
<line y1="459.9" x2="390" y2="459.9" stroke="#9B9B9B" stroke-width="0.2"/>
<line y1="479.9" x2="390" y2="479.9" stroke="#9B9B9B" stroke-width="0.2"/>
<line y1="499.9" x2="390" y2="499.9" stroke="#9B9B9B" stroke-width="0.2"/>
<line y1="519.9" x2="390" y2="519.9" stroke="#9B9B9B" stroke-width="0.2"/>
<line y1="539.9" x2="390" y2="539.9" stroke="#9B9B9B" stroke-width="0.2"/>
<line y1="559.9" x2="390" y2="559.9" stroke="#9B9B9B" stroke-width="0.2"/>
<line y1="579.9" x2="390" y2="579.9" stroke="#9B9B9B" stroke-width="0.2"/>
<line y1="599.9" x2="390" y2="599.9" stroke="#9B9B9B" stroke-width="0.2"/>
<line y1="619.9" x2="390" y2="619.9" stroke="#9B9B9B" stroke-width="0.2"/>
<line y1="639.9" x2="390" y2="639.9" stroke="#9B9B9B" stroke-width="0.2"/>
<line y1="659.9" x2="390" y2="659.9" stroke="#9B9B9B" stroke-width="0.2"/>
<line y1="679.9" x2="390" y2="679.9" stroke="#9B9B9B" stroke-width="0.2"/>
<line y1="699.9" x2="390" y2="699.9" stroke="#9B9B9B" stroke-width="0.2"/>
<line y1="719.9" x2="390" y2="719.9" stroke="#9B9B9B" stroke-width="0.2"/>
<line y1="739.9" x2="390" y2="739.9" stroke="#9B9B9B" stroke-width="0.2"/>
<line y1="759.9" x2="390" y2="759.9" stroke="#9B9B9B" stroke-width="0.2"/>
<line y1="779.9" x2="390" y2="779.9" stroke="#9B9B9B" stroke-width="0.2"/>
<line y1="799.9" x2="390" y2="799.9" stroke="#9B9B9B" stroke-width="0.2"/>
<line y1="819.9" x2="390" y2="819.9" stroke="#9B9B9B" stroke-width="0.2"/>
<line y1="839.9" x2="390" y2="839.9" stroke="#9B9B9B" stroke-width="0.2"/>
</g>
</svg>
