<svg width="20" height="20" viewBox="0 0 20 20" fill="none" xmlns="http://www.w3.org/2000/svg">
<path fill-rule="evenodd" clip-rule="evenodd" d="M8.33317 14.9998C4.65127 14.9998 1.6665 12.0151 1.6665 8.33317C1.6665 4.65127 4.65127 1.6665 8.33317 1.6665C12.0151 1.6665 14.9998 4.65127 14.9998 8.33317C14.9998 9.87376 14.4773 11.2923 13.5997 12.4212L18.0891 16.9106L16.9106 18.0891L12.4212 13.5997C11.2923 14.4773 9.87376 14.9998 8.33317 14.9998ZM13.3332 8.33317C13.3332 11.0946 11.0946 13.3332 8.33317 13.3332C5.57175 13.3332 3.33317 11.0946 3.33317 8.33317C3.33317 5.57175 5.57175 3.33317 8.33317 3.33317C11.0946 3.33317 13.3332 5.57175 13.3332 8.33317Z" fill="#161616"/>
</svg>
